<svg xmlns="http://www.w3.org/2000/svg" width="198" height="48" fill="none" id="desktop-logo"><path fill="#fff" d="M83.264 13.297h-.022c-5.909.012-10.73 4.797-10.747 10.668a10.59 10.59 0 0 0 3.158 7.591 10.67 10.67 0 0 0 7.572 3.128h.105c5.917-.057 10.714-4.878 10.691-10.749-.022-5.87-4.846-10.638-10.758-10.638zm-6.373 10.606c.036-3.627 2.792-6.357 6.415-6.357h.014c1.752.003 3.35.656 4.5 1.837 1.152 1.183 1.783 2.823 1.778 4.617-.005 1.77-.655 3.405-1.83 4.605-1.168 1.192-2.754 1.848-4.467 1.848h-.022a6.34 6.34 0 0 1-4.525-1.892c-1.219-1.234-1.88-2.888-1.862-4.658zM51.86 15.348c-1.665 1.444-2.606 3.475-2.647 5.723-.093 5.093-.084 8.748-.072 13.374v.271h4.16l.177-.01v-1.545q0-1.56-.005-3.117c-.007-2.328-.015-4.736.034-7.102.073-3.511.587-4.604 3.843-5.079l1.181-.148.005-4.278-.163-.02c-2.382-.298-4.753.406-6.514 1.93zM98.588 15.276c-1.673 1.448-2.616 3.49-2.657 5.746-.094 5.097-.084 8.754-.073 13.383v.318h.188l3.999-.001.169-.017v-1.543q0-1.566-.005-3.131c-.007-2.338-.015-4.755.034-7.13.073-3.526.59-4.623 3.858-5.1l1.186-.148.004-4.295-.164-.021c-2.39-.3-4.772.407-6.539 1.939M120.605 34.682q2.189-.005 4.378-.009l-.002-2.041c-.004-2.317-.007-4.942.012-7.035l.003-.385c.008-1.154.017-2.346.187-3.489.407-2.722 1.989-4.075 4.65-4.045 2.663.038 4.226 1.511 4.401 4.145.171 2.57.181 5.198.191 7.74.004 1.098.01 2.196.026 3.293.005.333.003.737.002 1.121v.6950000000000001h4.2250000000000005l.178-.009V31.66c.002-2.511.004-5.017-.006-7.445-.003-.795-.019-1.733-.117-2.664-.448-4.232-2.907-7.065-6.927-7.976-2.661-.602-6.362-.493-9.015 3.371-1.096-1.658-2.508-2.715-4.306-3.228-2.85-.813-5.737-.41-7.919 1.105-2.128 1.478-3.422 3.85-3.647 6.681-.232 2.934-.208 6.27-.185 9.496.008 1.195-.009 2.573-.015 3.68l.375.002h4.02l.024-2.138c-.006-2.422-.011-5.169.016-7.424.015-1.275.03-2.594.26-3.844.409-2.218 1.873-3.494 4.119-3.593 2.868-.126 4.643 1.384 4.874 4.14.232 2.784.209 11.518.206 12.505M73.053 17.662l-.012-4.35-4.463.004a4.46 4.46 0 0 1 1.58-3.295l.071-.058-.111-.14.035.024.094.104.025-.019-.013-.014.003.002.01.011.004-.003v-.002.001a4.38 4.38 0 0 1 2.57-.932l.17-.005.011-.17c.008-.133.013-.286.013-.469q0-1.654-.004-3.073V4.75l-.18-.008c-.413-.02-2.557-.06-4.712 1.088a7.9 7.9 0 0 0-2.507 2.075c-1.648 2.077-1.807 4.457-1.794 5.414l-3.01.002v4.342h3.045l.006 17.048h4.57V21.633c-.014-1.691-.4-3.105-1.075-3.97h5.6739999999999995M13.928 13.361h-.017c-5.678.01-10.362 4.685-10.442 10.424-.007.543-.017 7.451-.024 11.554l-.004 8.632h4.576v-.148c-.002-2.64 0-19.18.015-19.853.072-3.401 2.643-5.957 5.988-5.957h.031c3.17.016 5.782 2.673 5.823 5.926a6.16 6.16 0 0 1-.95 3.39c-1.201 1.89-3.378 2.664-4.878 2.753-.515.031-2.3.027-3.76.019v-.003l-.574.002v4.656h1.7c.121-.004.496-.008 2.419-.015 2.946-.012 5.665-1.161 7.657-3.235 1.917-1.996 2.973-4.668 2.973-7.524q0-.1-.002-.2c-.1-5.75-4.822-10.42-10.532-10.42M140.773 24.04v.017c.008 5.763 4.668 10.518 10.387 10.598.541.008 7.424.018 11.512.024l8.6.004v-4.645h-.146c-2.63.002-19.112 0-19.783-.015-3.388-.073-5.935-2.682-5.935-6.076v-.032c.016-3.217 2.664-5.868 5.904-5.91a6.07 6.07 0 0 1 3.379.964c1.882 1.22 2.653 3.429 2.742 4.95.031.524.027 2.335.018 3.816h-.003l.002.584h4.64v-1.726c-.003-.122-.007-.504-.015-2.454-.012-2.991-1.157-5.75-3.222-7.772-1.989-1.946-4.652-3.017-7.497-3.017q-.1 0-.2.002c-5.729.1-10.382 4.894-10.382 10.69zM179.286 34.716h-4.561c0-7.914-.019-14.674-.019-21.353h4.561c0 6.632.019 13.391.019 21.353M174.695 7.153c.011-1.322 1.002-2.298 2.329-2.292 1.31.007 2.288 1.015 2.276 2.346-.012 1.321-1.021 2.316-2.331 2.296-1.318-.02-2.283-1.018-2.274-2.351M47.305 25.662v.006l.001-.005M36.669 30.61a6.62 6.62 0 0 1-6.226-4.363.34.34 0 0 1 .319-.457h16.39l.018-.12c.09-.56.135-1.125.135-1.682 0-5.865-4.771-10.636-10.636-10.636s-10.865 5.003-10.628 11.06c.196 4.998 3.927 9.251 8.861 10.066a10.644 10.644 0 0 0 11.781-6.923H42.24a6.66 6.66 0 0 1-5.571 3.055m-6.227-8.88a6.62 6.62 0 0 1 6.226-4.364 6.62 6.62 0 0 1 6.226 4.365.34.34 0 0 1-.318.456H30.76a.34.34 0 0 1-.318-.457M190.777 10.822l-.004-.002.012.014z"></path><path fill="#fff" d="M188.933 13.363c0-2.467-.015-6.14-.015-8.5h-4.562c0 2.37.015 6.041.016 8.5h-3.098v4.352h3.024v.383h.003v.622q.002.886 0 1.77a172 172 0 0 0 .025 4.304c.029 1.272.118 2.283.285 3.186.512 2.792 1.855 4.818 3.987 6.02.983.555 2.14.934 3.44 1.13.246.037.494.055.754.075l.168.013V30.67h-.07l-.253-.005a3.6 3.6 0 0 1-3.344-2.985 5 5 0 0 1-.086-.576c-.151-1.65-.19-3.307-.208-4.706v-.633q-.002-.074-.006-.146l-.004-.089c-.049-1.564-.432-2.88-1.078-3.706l-.085-.108h-.007 5.141v-4.352h-4.025z"></path></svg>
