<svg width="133" height="34" viewBox="0 0 133 34" fill="none" xmlns="http://www.w3.org/2000/svg">
<path d="M58.4282 29.9813C58.499 29.9813 58.5726 29.995 58.6434 30.0226C58.7169 30.0501 58.7878 30.097 58.8531 30.1631L60.0706 31.4583C59.5368 32.1638 58.8695 32.6957 58.0687 33.0539C57.2652 33.4122 56.3173 33.5914 55.2223 33.5914C54.2173 33.5914 53.3157 33.4177 52.5204 33.0705C51.7251 32.726 51.0496 32.2465 50.4966 31.6375C49.941 31.0285 49.5161 30.3064 49.2192 29.4714C48.9251 28.6337 48.7752 27.727 48.7752 26.746C48.7752 25.7484 48.9441 24.8307 49.2846 23.9957C49.6223 23.1607 50.0963 22.4387 50.7037 21.8324C51.3138 21.2262 52.041 20.755 52.8881 20.4188C53.7352 20.0826 54.6722 19.9117 55.6936 19.9117C56.1893 19.9117 56.6578 19.9558 57.0963 20.0467C57.5348 20.1349 57.9461 20.2562 58.3274 20.4132C58.7088 20.5703 59.0601 20.7577 59.3815 20.9727C59.7002 21.1904 59.9862 21.4301 60.2341 21.6946L59.1991 23.1001C59.131 23.1855 59.052 23.2627 58.9621 23.3343C58.8722 23.406 58.7442 23.4391 58.5808 23.4391C58.4718 23.4391 58.3683 23.417 58.273 23.3674C58.1749 23.3178 58.0714 23.2572 57.9625 23.1883C57.8535 23.1167 57.7364 23.0395 57.6056 22.9568C57.4749 22.8741 57.3197 22.7997 57.1426 22.7281C56.9628 22.6592 56.7558 22.5986 56.5161 22.549C56.2764 22.4994 55.9959 22.4745 55.6745 22.4745C55.1189 22.4745 54.6095 22.5738 54.1492 22.775C53.6916 22.9734 53.2967 23.2572 52.9644 23.6292C52.6348 23.9985 52.3787 24.4477 52.1935 24.9741C52.0083 25.5004 51.9157 26.0929 51.9157 26.746C51.9157 27.4322 52.0083 28.0412 52.1935 28.5758C52.3787 29.1077 52.6293 29.5569 52.948 29.9206C53.264 30.2844 53.6372 30.5627 54.0593 30.7529C54.4842 30.943 54.9364 31.0367 55.4212 31.0367C55.699 31.0367 55.955 31.0229 56.1838 30.9954C56.4154 30.9678 56.6278 30.921 56.8239 30.8521C57.02 30.7859 57.208 30.6978 57.3877 30.5903C57.5648 30.4856 57.7473 30.3505 57.927 30.1907C58.0006 30.1301 58.0796 30.0805 58.164 30.0391C58.2484 30.0005 58.3356 29.9813 58.4282 29.9813Z" fill="white"/>
<path fill-rule="evenodd" clip-rule="evenodd" d="M73.8756 26.746C73.8756 27.716 73.7121 28.6144 73.3825 29.4467C73.053 30.2817 72.5872 31.0036 71.988 31.6209C71.3888 32.2355 70.667 32.7177 69.8226 33.0677C68.9783 33.4149 68.0413 33.5914 67.0117 33.5914C65.9848 33.5914 65.0452 33.4149 64.1981 33.0677C63.351 32.7177 62.6265 32.2355 62.0245 31.6209C61.4226 31.0036 60.9568 30.2817 60.6272 29.4467C60.2949 28.6144 60.1315 27.716 60.1315 26.746C60.1315 25.7787 60.2949 24.8803 60.6272 24.0453C60.9568 23.2131 61.4226 22.4911 62.0245 21.8793C62.6265 21.2648 63.351 20.7852 64.1981 20.4352C65.0452 20.088 65.9848 19.9117 67.0117 19.9117C68.0413 19.9117 68.9783 20.088 69.8226 20.4408C70.667 20.7935 71.3888 21.2758 71.988 21.8875C72.5872 22.4993 73.053 23.2214 73.3825 24.0564C73.7121 24.8886 73.8756 25.787 73.8756 26.746ZM70.7351 26.746C70.7351 26.0846 70.6506 25.4894 70.4817 24.9603C70.3129 24.4312 70.0677 23.9819 69.7518 23.6154C69.4331 23.2461 69.0436 22.9651 68.5833 22.7694C68.123 22.5738 67.6 22.4745 67.0117 22.4745C66.4206 22.4745 65.8922 22.5738 65.4292 22.7694C64.9662 22.9651 64.5767 23.2461 64.258 23.6154C63.9393 23.9819 63.6969 24.4312 63.5253 24.9603C63.3564 25.4894 63.272 26.0846 63.272 26.746C63.272 27.4156 63.3564 28.0137 63.5253 28.5428C63.6969 29.0719 63.9393 29.521 64.258 29.8875C64.5767 30.2568 64.9662 30.5352 65.4292 30.7281C65.8922 30.921 66.4206 31.0174 67.0117 31.0174C67.6 31.0174 68.123 30.921 68.5833 30.7281C69.0436 30.5352 69.4331 30.2568 69.7518 29.8875C70.0677 29.521 70.3129 29.0719 70.4817 28.5428C70.6506 28.0137 70.7351 27.4156 70.7351 26.746Z" fill="white"/>
<path d="M76.9643 20.0605C77.0978 20.0605 77.2094 20.066 77.2993 20.077C77.3919 20.0908 77.4709 20.1129 77.5445 20.1459C77.618 20.1817 77.6861 20.2286 77.7542 20.2892C77.8196 20.3499 77.8958 20.4325 77.9802 20.5372L84.2639 28.5758C84.2394 28.3167 84.2204 28.0687 84.2095 27.8262C84.1958 27.5837 84.1904 27.355 84.1904 27.1428V20.0605H86.8951V33.4425H85.299C85.062 33.4425 84.8632 33.4067 84.6998 33.3322C84.5363 33.2606 84.3784 33.1256 84.2258 32.9299L77.9911 24.9547C78.0075 25.189 78.0238 25.4177 78.0347 25.6409C78.0483 25.8641 78.0538 26.0736 78.0538 26.2692V33.4425H75.3491V20.0605H76.9643Z" fill="white"/>
<path d="M97.5912 20.0605V22.447H92.1628V25.572H96.3219V27.8676H92.1628V31.056H97.5912V33.4425H89.0741V20.0605H97.5912Z" fill="white"/>
<path d="M108.225 29.9813C108.296 29.9813 108.369 29.995 108.443 30.0226C108.513 30.0501 108.584 30.097 108.65 30.1631L109.867 31.4583C109.333 32.1638 108.666 32.6957 107.865 33.0539C107.062 33.4122 106.114 33.5914 105.019 33.5914C104.014 33.5914 103.112 33.4177 102.317 33.0705C101.522 32.726 100.846 32.2465 100.293 31.6375C99.7376 31.0285 99.3126 30.3064 99.0157 29.4714C98.7216 28.6337 98.5718 27.727 98.5718 26.746C98.5718 25.7484 98.7406 24.8307 99.0811 23.9957C99.4189 23.1607 99.8928 22.4387 100.5 21.8324C101.11 21.2262 101.838 20.755 102.685 20.4188C103.532 20.0826 104.469 19.9117 105.49 19.9117C105.986 19.9117 106.454 19.9558 106.893 20.0467C107.331 20.1349 107.743 20.2562 108.124 20.4132C108.505 20.5703 108.857 20.7577 109.178 20.9727C109.497 21.1904 109.783 21.4301 110.031 21.6946L108.996 23.1001C108.927 23.1855 108.851 23.2627 108.759 23.3343C108.669 23.406 108.541 23.4391 108.377 23.4391C108.268 23.4391 108.165 23.417 108.069 23.3674C107.971 23.3178 107.868 23.2572 107.762 23.1883C107.65 23.1167 107.533 23.0395 107.402 22.9568C107.271 22.8741 107.116 22.7997 106.939 22.7281C106.759 22.6592 106.552 22.5986 106.313 22.549C106.073 22.4994 105.792 22.4745 105.471 22.4745C104.915 22.4745 104.406 22.5738 103.948 22.775C103.488 22.9734 103.093 23.2572 102.761 23.6292C102.431 23.9985 102.175 24.4477 101.99 24.9741C101.805 25.5004 101.712 26.0929 101.712 26.746C101.712 27.4322 101.805 28.0412 101.99 28.5758C102.175 29.1077 102.426 29.5569 102.745 29.9206C103.063 30.2844 103.434 30.5627 103.856 30.7529C104.281 30.943 104.733 31.0367 105.218 31.0367C105.496 31.0367 105.752 31.0229 105.98 30.9954C106.212 30.9678 106.424 30.921 106.62 30.8521C106.817 30.7859 107.005 30.6978 107.184 30.5903C107.361 30.4856 107.544 30.3505 107.724 30.1907C107.797 30.1301 107.876 30.0805 107.961 30.0391C108.045 30.0005 108.132 29.9813 108.225 29.9813Z" fill="white"/>
<path d="M120.871 20.0605V22.5214H117.148V33.4425H114.081V22.5214H110.357V20.0605H120.871Z" fill="white"/>
<path fill-rule="evenodd" clip-rule="evenodd" d="M133 33.4425H130.622C130.355 33.4425 130.135 33.3818 129.963 33.2551C129.791 33.1311 129.672 32.9685 129.606 32.7728L128.825 30.4387H123.794L123.015 32.7728C122.952 32.9437 122.835 33.098 122.661 33.2358C122.484 33.3736 122.268 33.4425 122.015 33.4425H119.618L124.739 20.0605H127.879L133 33.4425ZM124.502 28.3278H128.116L126.899 24.6626C126.82 24.4284 126.727 24.1555 126.624 23.8386C126.517 23.5245 126.411 23.1828 126.308 22.8163C126.212 23.1883 126.112 23.5355 126.011 23.8524C125.907 24.1721 125.809 24.4477 125.719 24.6792L124.502 28.3278Z" fill="white"/>
<path fill-rule="evenodd" clip-rule="evenodd" d="M41.9517 13.8215L45.553 13.8172V33.7843H35.0921V21.2312C33.7003 28.6844 27.255 31.6273 27.255 31.6273C23.9212 33.5965 20.4148 34.0812 17.4845 33.9895C13.5228 33.8672 10.6142 32.6861 10.6142 32.6861C9.19218 32.1229 7.9795 31.4483 6.94161 30.7213C3.48483 28.2958 2.02401 25.3071 1.54282 24.0954C1.45651 23.9142 1.37451 23.7309 1.29683 23.5453C0.461768 21.587 0 19.4388 0 17.1858C0 14.7559 0.537304 12.4461 1.49968 10.3678C5.23049 1.15489 14.3126 0.0873261 17.4241 0C23.7033 0.213949 29.115 3.92967 31.8101 9.2784L22.9675 12.6011C21.347 10.6385 20.3048 10.0883 18.1427 10.0883C14.591 10.0883 12.2735 14.1294 12.2735 17.2688C12.2735 20.681 14.2436 24.8006 18.2204 24.8006C22.428 24.8006 22.9675 20.2509 22.9675 20.2509H18.298V13.8565L39.4378 13.8259C37.6879 13.2867 36.404 11.6471 36.404 9.69754C36.404 7.30263 38.3352 5.34217 40.6894 5.34217C43.0435 5.34217 44.9747 7.30263 44.9747 9.69754C44.9747 11.6449 43.6973 13.2801 41.9517 13.8215Z" fill="white"/>
</svg>
